<mxfile><diagram id="-Vv1gKbPDoG14FSwxwox" name="Page-1"><mxGraphModel dx="1489" dy="874" grid="0" gridSize="10" guides="1" tooltips="1" connect="1" arrows="1" fold="1" page="1" pageScale="1" pageWidth="850" pageHeight="1100" math="0" shadow="0"><root><mxCell id="0"/><mxCell id="1" parent="0"/><mxCell id="2" value="InstapayApp" style="shape=umlLifeline;perimeter=lifelinePerimeter;whiteSpace=wrap;html=1;container=1;collapsible=0;recursiveResize=0;outlineConnect=0;" vertex="1" parent="1"><mxGeometry x="282" y="21" width="166" height="723" as="geometry"/></mxCell><mxCell id="21" value="" style="fontSize=12;html=1;endArrow=blockThin;endFill=1;" edge="1" parent="2"><mxGeometry width="160" relative="1" as="geometry"><mxPoint x="84" y="192" as="sourcePoint"/><mxPoint x="306" y="192" as="targetPoint"/></mxGeometry></mxCell><mxCell id="25" value="" style="fontSize=12;html=1;endArrow=blockThin;endFill=1;" edge="1" parent="2"><mxGeometry width="160" relative="1" as="geometry"><mxPoint x="86" y="271" as="sourcePoint"/><mxPoint x="305" y="271" as="targetPoint"/></mxGeometry></mxCell><mxCell id="59" value="" style="html=1;points=[];perimeter=orthogonalPerimeter;" vertex="1" parent="2"><mxGeometry x="78" y="49" width="10" height="630" as="geometry"/></mxCell><mxCell id="51" value="" style="edgeStyle=orthogonalEdgeStyle;fontSize=12;html=1;endArrow=blockThin;endFill=1;exitX=1.171;exitY=0.103;exitDx=0;exitDy=0;exitPerimeter=0;" edge="1" parent="2" source="59"><mxGeometry width="160" relative="1" as="geometry"><mxPoint x="95" y="109" as="sourcePoint"/><mxPoint x="92" y="156" as="targetPoint"/><Array as="points"><mxPoint x="90" y="112"/><mxPoint x="207" y="112"/><mxPoint x="207" y="155"/><mxPoint x="92" y="155"/></Array></mxGeometry></mxCell><mxCell id="3" value="Signup" style="shape=umlLifeline;perimeter=lifelinePerimeter;whiteSpace=wrap;html=1;container=1;collapsible=0;recursiveResize=0;outlineConnect=0;" vertex="1" parent="1"><mxGeometry x="527" y="21" width="140" height="728" as="geometry"/></mxCell><mxCell id="47" value="" style="fontSize=12;html=1;endArrow=blockThin;endFill=1;" edge="1" parent="3"><mxGeometry width="160" relative="1" as="geometry"><mxPoint x="69" y="316" as="sourcePoint"/><mxPoint x="335" y="318" as="targetPoint"/></mxGeometry></mxCell><mxCell id="60" value="" style="html=1;points=[];perimeter=orthogonalPerimeter;" vertex="1" parent="3"><mxGeometry x="65" y="178" width="10" height="404" as="geometry"/></mxCell><mxCell id="4" value="" style="shape=umlLifeline;participant=umlActor;perimeter=lifelinePerimeter;whiteSpace=wrap;html=1;container=1;collapsible=0;recursiveResize=0;verticalAlign=top;spacingTop=36;outlineConnect=0;" vertex="1" parent="1"><mxGeometry x="100" y="21" width="20" height="722" as="geometry"/></mxCell><mxCell id="5" value="" style="html=1;verticalAlign=bottom;endArrow=block;" edge="1" parent="4"><mxGeometry x="0.0023" y="9" width="80" relative="1" as="geometry"><mxPoint x="14" y="74" as="sourcePoint"/><mxPoint x="255" y="75" as="targetPoint"/><mxPoint as="offset"/></mxGeometry></mxCell><mxCell id="6" value="registerInterface()" style="text;html=1;align=center;verticalAlign=middle;resizable=0;points=[];autosize=1;strokeColor=none;fillColor=none;" vertex="1" parent="1"><mxGeometry x="165" y="66" width="113" height="26" as="geometry"/></mxCell><mxCell id="20" value="take user data" style="text;html=1;align=center;verticalAlign=middle;resizable=0;points=[];autosize=1;strokeColor=none;fillColor=none;" vertex="1" parent="1"><mxGeometry x="377" y="106" width="94" height="26" as="geometry"/></mxCell><mxCell id="22" value="get otp()" style="text;html=1;align=center;verticalAlign=middle;resizable=0;points=[];autosize=1;strokeColor=none;fillColor=none;" vertex="1" parent="1"><mxGeometry x="436" y="186" width="63" height="26" as="geometry"/></mxCell><mxCell id="24" value="otp" style="html=1;verticalAlign=bottom;endArrow=open;dashed=1;endSize=8;" edge="1" parent="1"><mxGeometry relative="1" as="geometry"><mxPoint x="588" y="244" as="sourcePoint"/><mxPoint x="372" y="244" as="targetPoint"/><Array as="points"><mxPoint x="557" y="244"/></Array></mxGeometry></mxCell><mxCell id="26" value="register(" style="text;html=1;align=center;verticalAlign=middle;resizable=0;points=[];autosize=1;strokeColor=none;fillColor=none;" vertex="1" parent="1"><mxGeometry x="409" y="266" width="62" height="26" as="geometry"/></mxCell><mxCell id="27" value="&amp;nbsp;user data)" style="text;html=1;align=center;verticalAlign=middle;resizable=0;points=[];autosize=1;strokeColor=none;fillColor=none;" vertex="1" parent="1"><mxGeometry x="449" y="266" width="75" height="26" as="geometry"/></mxCell><mxCell id="29" value="validate user data" style="text;html=1;align=center;verticalAlign=middle;resizable=0;points=[];autosize=1;strokeColor=none;fillColor=none;" vertex="1" parent="1"><mxGeometry x="651" y="308" width="113" height="26" as="geometry"/></mxCell><mxCell id="34" value="registration accepted" style="html=1;verticalAlign=bottom;endArrow=open;dashed=1;endSize=8;" edge="1" parent="1"><mxGeometry relative="1" as="geometry"><mxPoint x="587" y="454" as="sourcePoint"/><mxPoint x="369" y="454" as="targetPoint"/><Array as="points"><mxPoint x="396" y="454"/></Array></mxGeometry></mxCell><mxCell id="35" value="redirect to login" style="html=1;verticalAlign=bottom;endArrow=open;dashed=1;endSize=8;" edge="1" parent="1" source="2" target="4"><mxGeometry relative="1" as="geometry"><mxPoint x="335" y="454" as="sourcePoint"/><mxPoint x="255" y="454" as="targetPoint"/><Array as="points"><mxPoint x="286" y="480"/></Array></mxGeometry></mxCell><mxCell id="36" value="" style="edgeStyle=orthogonalEdgeStyle;fontSize=12;html=1;endArrow=blockThin;endFill=1;" edge="1" parent="1"><mxGeometry width="160" relative="1" as="geometry"><mxPoint x="372" y="634" as="sourcePoint"/><mxPoint x="372" y="675" as="targetPoint"/><Array as="points"><mxPoint x="486" y="632"/><mxPoint x="486" y="675"/></Array></mxGeometry></mxCell><mxCell id="37" value="take valid user data" style="text;html=1;align=center;verticalAlign=middle;resizable=0;points=[];autosize=1;strokeColor=none;fillColor=none;" vertex="1" parent="1"><mxGeometry x="364" y="600" width="122" height="26" as="geometry"/></mxCell><mxCell id="43" value="" style="endArrow=none;dashed=1;html=1;" edge="1" parent="1" source="4"><mxGeometry width="50" height="50" relative="1" as="geometry"><mxPoint x="183" y="589" as="sourcePoint"/><mxPoint x="1113" y="514" as="targetPoint"/><Array as="points"><mxPoint x="348" y="514"/></Array></mxGeometry></mxCell><mxCell id="39" value="regitration rejected" style="html=1;verticalAlign=bottom;endArrow=open;dashed=1;endSize=8;" edge="1" parent="1"><mxGeometry relative="1" as="geometry"><mxPoint x="590" y="579" as="sourcePoint"/><mxPoint x="373" y="579" as="targetPoint"/><Array as="points"><mxPoint x="480" y="579"/><mxPoint x="373" y="579"/></Array></mxGeometry></mxCell><mxCell id="44" value="&lt;b style=&quot;border-color: rgb(0, 0, 0); color: rgb(240, 240, 240); font-family: Helvetica; font-size: 12px; font-style: normal; font-variant-ligatures: normal; font-variant-caps: normal; letter-spacing: normal; orphans: 2; text-align: center; text-indent: 0px; text-transform: none; widows: 2; word-spacing: 0px; -webkit-text-stroke-width: 0px; background-color: rgb(42, 37, 47); text-decoration-thickness: initial; text-decoration-style: initial; text-decoration-color: initial;&quot;&gt;[[registration failed]]&lt;/b&gt;" style="text;whiteSpace=wrap;html=1;" vertex="1" parent="1"><mxGeometry x="447.9951821899414" y="521.0041074625651" width="155" height="36" as="geometry"/></mxCell><mxCell id="45" value="InstapayAccountDB" style="shape=umlLifeline;perimeter=lifelinePerimeter;whiteSpace=wrap;html=1;container=1;collapsible=0;recursiveResize=0;outlineConnect=0;" vertex="1" parent="1"><mxGeometry x="789" y="15" width="160" height="728" as="geometry"/></mxCell><mxCell id="54" value="&lt;div style=&quot;background-color: rgb(24, 24, 36); font-family: &amp;quot;JetBrains Mono&amp;quot;, &amp;quot;Droid Sans Mono&amp;quot;, &amp;quot;monospace&amp;quot;, monospace; font-size: 22px; line-height: 30px;&quot;&gt;&lt;br&gt;&lt;/div&gt;" style="text;html=1;align=center;verticalAlign=middle;resizable=0;points=[];autosize=1;strokeColor=none;fillColor=none;" vertex="1" parent="45"><mxGeometry x="131" y="401" width="18" height="42" as="geometry"/></mxCell><mxCell id="53" value="" style="edgeStyle=orthogonalEdgeStyle;fontSize=12;html=1;endArrow=blockThin;endFill=1;" edge="1" parent="45"><mxGeometry width="160" relative="1" as="geometry"><mxPoint x="81.82999999999993" y="435" as="sourcePoint"/><mxPoint x="78.99666666666644" y="478" as="targetPoint"/><Array as="points"><mxPoint x="315" y="435"/><mxPoint x="315" y="478"/></Array></mxGeometry></mxCell><mxCell id="62" value="" style="html=1;points=[];perimeter=orthogonalPerimeter;" vertex="1" parent="45"><mxGeometry x="75" y="312" width="12" height="258" as="geometry"/></mxCell><mxCell id="30" value="alt" style="shape=umlFrame;whiteSpace=wrap;html=1;" vertex="1" parent="1"><mxGeometry x="89" y="362" width="1039" height="351" as="geometry"/></mxCell><mxCell id="41" value="&lt;b&gt;[[registration succed]]&lt;/b&gt;" style="text;html=1;align=center;verticalAlign=middle;resizable=0;points=[];autosize=1;strokeColor=none;fillColor=none;" vertex="1" parent="1"><mxGeometry x="445" y="369.5" width="145" height="26" as="geometry"/></mxCell><mxCell id="48" value="valid user data" style="html=1;verticalAlign=bottom;endArrow=open;dashed=1;endSize=8;exitX=-0.378;exitY=0.365;exitDx=0;exitDy=0;exitPerimeter=0;" edge="1" parent="1" source="62"><mxGeometry relative="1" as="geometry"><mxPoint x="855" y="419" as="sourcePoint"/><mxPoint x="605" y="419" as="targetPoint"/><Array as="points"/></mxGeometry></mxCell><mxCell id="55" value="&lt;span style=&quot;white-space: pre;&quot;&gt;&#9;&lt;/span&gt;&lt;span style=&quot;white-space: pre;&quot;&gt;&#9;&lt;/span&gt;&lt;span style=&quot;white-space: pre;&quot;&gt;&#9;&lt;/span&gt;&lt;span style=&quot;white-space: pre;&quot;&gt;&#9;&lt;/span&gt;&lt;span style=&quot;white-space: pre;&quot;&gt;&#9;&lt;/span&gt;&lt;span style=&quot;white-space: pre;&quot;&gt;&#9;&lt;/span&gt;saveInstapayAccount(InstapayAccount user)" style="text;html=1;align=center;verticalAlign=middle;resizable=0;points=[];autosize=1;strokeColor=none;fillColor=none;" vertex="1" parent="1"><mxGeometry x="718" y="427" width="415" height="26" as="geometry"/></mxCell><mxCell id="49" value="invalid user data" style="html=1;verticalAlign=bottom;endArrow=open;dashed=1;endSize=8;" edge="1" parent="1"><mxGeometry relative="1" as="geometry"><mxPoint x="863" y="562" as="sourcePoint"/><mxPoint x="604" y="562" as="targetPoint"/><Array as="points"><mxPoint x="610" y="562"/></Array></mxGeometry></mxCell></root></mxGraphModel></diagram></mxfile>